<?xml version="1.0" encoding="UTF-8" standalone="no"?>
<svg
   xmlns:dc="http://purl.org/dc/elements/1.1/"
   xmlns:cc="http://creativecommons.org/ns#"
   xmlns:rdf="http://www.w3.org/1999/02/22-rdf-syntax-ns#"
   xmlns:svg="http://www.w3.org/2000/svg"
   xmlns="http://www.w3.org/2000/svg"
   xmlns:sodipodi="http://sodipodi.sourceforge.net/DTD/sodipodi-0.dtd"
   xmlns:inkscape="http://www.inkscape.org/namespaces/inkscape"
   inkscape:version="1.0 (4035a4fb49, 2020-05-01)"
   sodipodi:docname="logo_dark.svg"
   id="svg111"
   version="1.0"
   preserveAspectRatio="xMidYMid meet"
   height="162.90555"
   viewBox="0 0 204.00263 122.17916"
   zoomAndPan="magnify"
   width="272.00351">
  <metadata
     id="metadata115">
    <rdf:RDF>
      <cc:Work
         rdf:about="">
        <dc:format>image/svg+xml</dc:format>
        <dc:type
           rdf:resource="http://purl.org/dc/dcmitype/StillImage" />
      </cc:Work>
    </rdf:RDF>
  </metadata>
  <sodipodi:namedview
     inkscape:current-layer="svg111"
     inkscape:window-maximized="0"
     inkscape:window-y="6"
     inkscape:window-x="1345"
     inkscape:cy="142.49441"
     inkscape:cx="118.37026"
     inkscape:zoom="3.2892516"
     showgrid="false"
     id="namedview113"
     inkscape:window-height="1356"
     inkscape:window-width="2411"
     inkscape:pageshadow="2"
     inkscape:pageopacity="0"
     guidetolerance="10"
     gridtolerance="10"
     objecttolerance="10"
     borderopacity="1"
     bordercolor="#666666"
     pagecolor="#ffffff" />
  <defs
     id="defs7">
    <g
       id="g2" />
    <clipPath
       id="6c969f9f83">
      <path
         id="path4"
         clip-rule="nonzero"
         d="M 99.964844,119.22656 H 274.71484 v 86.85547 H 99.964844 Z m 0,0" />
    </clipPath>
  </defs>
  <rect
     style="stroke-width:0.350836"
     id="rect11"
     fill-opacity="1"
     height="122.17916"
     y="0"
     fill="#01305b"
     width="204.00262"
     x="0" />
  <g
     transform="translate(-85.856328,-117.55046)"
     id="g15"
     clip-path="url(#6c969f9f83)">
    <path
       id="path13"
       fill-rule="nonzero"
       fill-opacity="1"
       d="m 275.01562,162.67187 c 0,24.07032 -19.58984,43.58594 -43.75781,43.58594 -6.14844,0 -12,-1.26562 -17.30859,-3.54687 5.58984,-3.67578 10.375,-8.48438 14.00781,-14.08985 1.08203,0.13282 2.18359,0.20313 3.30078,0.20313 14.50391,0 26.25781,-11.70703 26.25781,-26.15235 0,-12.96093 -9.46484,-23.71093 -21.8789,-25.78906 v -17.58593 c 22.10937,2.1914 39.3789,20.77343 39.3789,43.37499 z m -135.64843,25.78907 c -12.41406,-2.07813 -21.87891,-12.82813 -21.87891,-25.78907 0,-14.44531 11.75391,-26.15234 26.25781,-26.15234 1.11719,0 2.21875,0.0703 3.30078,0.20313 3.63672,-5.60938 8.41797,-10.41407 14.01172,-14.08985 -5.3125,-2.28125 -11.16406,-3.55078 -17.3125,-3.55078 -24.16796,0 -43.757809,19.51563 -43.757809,43.58984 0,22.60157 17.269529,41.1875 39.378909,43.3711 z m 91.89062,-51.94141 h -8.74609 c 5.48828,7.28516 8.74609,16.33984 8.74609,26.15234 0,24.07032 -19.58984,43.58594 -43.7539,43.58594 h -43.75782 v -17.43359 h 8.75 c -5.49609,-7.28516 -8.75,-16.33985 -8.75,-26.15235 0,-24.07421 19.58985,-43.58984 43.75782,-43.58984 h 43.7539 z m -17.5,26.15234 c 0,-14.44531 -11.7539,-26.15234 -26.2539,-26.15234 -14.50391,0 -26.25782,11.70703 -26.25782,26.15234 0,14.44532 11.75391,26.15235 26.25782,26.15235 14.49609,0 26.2539,-11.70703 26.2539,-26.15235 z m 0,0"
       fill="#fafbfc" />
  </g>
  <g
     transform="translate(-85.856328,-117.55046)"
     id="g23"
     fill-opacity="1"
     fill="#fafbfc">
    <g
       id="g21"
       transform="translate(85.848545,237.67748)">
      <g
         id="g19">
        <path
           id="path17"
           d="m 11.210938,0.261719 c 3.867187,0 7.214843,-2.179688 8.871093,-5.363281 L 16.375,-7.019531 c -0.941406,1.851562 -2.859375,3.085937 -5.164062,3.085937 -3.28125,0 -5.785157,-2.53125 -5.785157,-5.816406 0,-3.28125 2.503907,-5.816406 5.785157,-5.816406 2.304687,0 4.222656,1.238281 5.164062,3.089844 l 3.707031,-1.917969 c -1.65625,-3.183594 -5.003906,-5.363281 -8.871093,-5.363281 -5.523438,0 -10.007813,4.484374 -10.007813,10.007812 0,5.527344 4.484375,10.011719 10.007813,10.011719 z m 0,0" />
      </g>
    </g>
  </g>
  <g
     transform="translate(-85.856328,-117.55046)"
     id="g31"
     fill-opacity="1"
     fill="#fafbfc">
    <g
       id="g29"
       transform="translate(106.2523,237.67748)">
      <g
         id="g27">
        <path
           id="path25"
           d="m 14.136719,-19.496094 v 7.832032 H 6.207031 v -7.832032 H 1.917969 V 0 h 4.289062 v -7.863281 h 7.929688 V 0 h 4.253906 v -19.496094 z m 0,0" />
      </g>
    </g>
  </g>
  <g
     transform="translate(-85.856328,-117.55046)"
     id="g39"
     fill-opacity="1"
     fill="#fafbfc">
    <g
       id="g37"
       transform="translate(126.07123,237.67748)">
      <g
         id="g35">
        <path
           id="path33"
           d="m 13.84375,0 h 4.582031 L 11.40625,-19.496094 H 6.597656 L -0.421875,0 h 4.582031 l 1.203125,-3.671875 h 7.277344 z M 6.5,-7.246094 9,-14.980469 l 2.503906,7.734375 z m 0,0" />
      </g>
    </g>
  </g>
  <g
     transform="translate(-85.856328,-117.55046)"
     id="g47"
     fill-opacity="1"
     fill="#fafbfc">
    <g
       id="g45"
       transform="translate(143.55086,237.67748)">
      <g
         id="g43">
        <path
           id="path41"
           d="M 2.078125,0 H 6.367188 V -19.496094 H 2.078125 Z m 0,0" />
      </g>
    </g>
  </g>
  <g
     transform="translate(-85.856328,-117.55046)"
     id="g55"
     fill-opacity="1"
     fill="#fafbfc">
    <g
       id="g53"
       transform="translate(151.44585,237.67748)">
      <g
         id="g51">
        <path
           id="path49"
           d="M 15.921875,-19.496094 V -6.597656 L 6.335938,-19.496094 H 1.917969 V 0 H 6.207031 V -12.933594 L 15.757812,0 h 4.421876 v -19.496094 z m 0,0" />
      </g>
    </g>
  </g>
  <g
     transform="translate(-85.856328,-117.55046)"
     id="g61"
     fill-opacity="1"
     fill="#fafbfc">
    <g
       id="g59"
       transform="translate(173.05175,237.67748)">
      <g
         id="g57" />
    </g>
  </g>
  <g
     transform="translate(-85.856328,-117.55046)"
     id="g69"
     fill-opacity="1"
     fill="#fafbfc">
    <g
       id="g67"
       transform="translate(180.32942,237.67748)">
      <g
         id="g65">
        <path
           id="path63"
           d="m 11.210938,-10.691406 v 3.347656 h 5.359374 c -0.910156,2.046875 -2.921874,3.410156 -5.328124,3.410156 -3.28125,0 -5.816407,-2.53125 -5.816407,-5.816406 0,-3.28125 2.535157,-5.816406 5.816407,-5.816406 2.308593,0 4.191406,1.238281 5.167968,3.089844 l 3.703125,-1.917969 c -1.6875,-3.183594 -5.035156,-5.363281 -8.871093,-5.363281 -5.554688,0 -10.007813,4.484374 -10.007813,10.007812 0,5.527344 4.453125,10.011719 10.007813,10.011719 C 16.765625,0.261719 21.25,-4.222656 21.25,-9.75 v -0.941406 z m 0,0" />
      </g>
    </g>
  </g>
  <g
     transform="translate(-85.856328,-117.55046)"
     id="g77"
     fill-opacity="1"
     fill="#fafbfc">
    <g
       id="g75"
       transform="translate(202.29271,237.67748)">
      <g
         id="g73">
        <path
           id="path71"
           d="M 6.207031,-3.800781 V -19.496094 H 1.917969 V 0 h 10.753906 v -3.800781 z m 0,0" />
      </g>
    </g>
  </g>
  <g
     transform="translate(-85.856328,-117.55046)"
     id="g85"
     fill-opacity="1"
     fill="#fafbfc">
    <g
       id="g83"
       transform="translate(214.50891,237.67748)">
      <g
         id="g81">
        <path
           id="path79"
           d="m 13.84375,0 h 4.582031 L 11.40625,-19.496094 H 6.597656 L -0.421875,0 h 4.582031 l 1.203125,-3.671875 h 7.277344 z M 6.5,-7.246094 9,-14.980469 l 2.503906,7.734375 z m 0,0" />
      </g>
    </g>
  </g>
  <g
     transform="translate(-85.856328,-117.55046)"
     id="g93"
     fill-opacity="1"
     fill="#fafbfc">
    <g
       id="g91"
       transform="translate(231.98855,237.67748)">
      <g
         id="g89">
        <path
           id="path87"
           d="M 15.921875,-19.496094 V -6.597656 L 6.335938,-19.496094 H 1.917969 V 0 H 6.207031 V -12.933594 L 15.757812,0 h 4.421876 v -19.496094 z m 0,0" />
      </g>
    </g>
  </g>
  <g
     transform="translate(-85.856328,-117.55046)"
     id="g101"
     fill-opacity="1"
     fill="#fafbfc">
    <g
       id="g99"
       transform="translate(253.59445,237.67748)">
      <g
         id="g97">
        <path
           id="path95"
           d="m 11.210938,0.261719 c 3.867187,0 7.214843,-2.179688 8.871093,-5.363281 L 16.375,-7.019531 c -0.941406,1.851562 -2.859375,3.085937 -5.164062,3.085937 -3.28125,0 -5.785157,-2.53125 -5.785157,-5.816406 0,-3.28125 2.503907,-5.816406 5.785157,-5.816406 2.304687,0 4.222656,1.238281 5.164062,3.089844 l 3.707031,-1.917969 c -1.65625,-3.183594 -5.003906,-5.363281 -8.871093,-5.363281 -5.523438,0 -10.007813,4.484374 -10.007813,10.007812 0,5.527344 4.484375,10.011719 10.007813,10.011719 z m 0,0" />
      </g>
    </g>
  </g>
  <g
     transform="translate(-85.856328,-117.55046)"
     id="g109"
     fill-opacity="1"
     fill="#fafbfc">
    <g
       id="g107"
       transform="translate(273.99821,237.67748)">
      <g
         id="g105">
        <path
           id="path103"
           d="m 13.808594,-15.726562 v -3.769532 H 2.078125 V 0 H 13.808594 V -3.769531 H 6.367188 v -4.09375 h 6.371093 v -3.769531 H 6.367188 v -4.09375 z m 0,0" />
      </g>
    </g>
  </g>
</svg>
