<?xml version="1.0" encoding="UTF-8" standalone="no"?>
<svg
   xmlns:dc="http://purl.org/dc/elements/1.1/"
   xmlns:cc="http://creativecommons.org/ns#"
   xmlns:rdf="http://www.w3.org/1999/02/22-rdf-syntax-ns#"
   xmlns:svg="http://www.w3.org/2000/svg"
   xmlns="http://www.w3.org/2000/svg"
   xmlns:sodipodi="http://sodipodi.sourceforge.net/DTD/sodipodi-0.dtd"
   xmlns:inkscape="http://www.inkscape.org/namespaces/inkscape"
   inkscape:version="1.0 (4035a4fb49, 2020-05-01)"
   sodipodi:docname="logo_light.svg"
   id="svg111"
   version="1.0"
   preserveAspectRatio="xMidYMid meet"
   height="158.28352"
   viewBox="0 0 200.75514 118.71264"
   zoomAndPan="magnify"
   width="267.67352">
  <metadata
     id="metadata115">
    <rdf:RDF>
      <cc:Work
         rdf:about="">
        <dc:format>image/svg+xml</dc:format>
        <dc:type
           rdf:resource="http://purl.org/dc/dcmitype/StillImage" />
      </cc:Work>
    </rdf:RDF>
  </metadata>
  <sodipodi:namedview
     inkscape:current-layer="svg111"
     inkscape:window-maximized="0"
     inkscape:window-y="201"
     inkscape:window-x="1931"
     inkscape:cy="32.603086"
     inkscape:cx="132.90981"
     inkscape:zoom="1.3472685"
     showgrid="false"
     id="namedview113"
     inkscape:window-height="857"
     inkscape:window-width="1469"
     inkscape:pageshadow="2"
     inkscape:pageopacity="0"
     guidetolerance="10"
     gridtolerance="10"
     objecttolerance="10"
     borderopacity="1"
     bordercolor="#666666"
     pagecolor="#ffffff" />
  <defs
     id="defs7">
    <g
       id="g2" />
    <clipPath
       id="8e947d98ba">
      <path
         id="path4"
         clip-rule="nonzero"
         d="M 100,119.22656 H 274.71484 V 206.125 H 100 Z m 0,0" />
    </clipPath>
  </defs>
  <g
     transform="translate(-87.05167,-119.22656)"
     id="g15"
     clip-path="url(#8e947d98ba)">
    <path
       id="path13"
       fill-rule="nonzero"
       fill-opacity="1"
       d="m 274.93359,162.67187 c 0,24.05079 -19.57031,43.54688 -43.71484,43.54688 -6.14453,0 -11.98828,-1.26563 -17.29688,-3.54297 5.58985,-3.67578 10.36719,-8.47656 14,-14.07812 1.07813,0.13281 2.17969,0.20312 3.29688,0.20312 14.48828,0 26.23047,-11.69531 26.23047,-26.12891 0,-12.94531 -9.45313,-23.6875 -21.85938,-25.76562 v -17.56641 c 22.08985,2.1875 39.34375,20.75391 39.34375,43.33203 z M 139.41406,188.4375 c -12.40625,-2.07422 -21.85937,-12.81641 -21.85937,-25.76563 0,-14.42968 11.74218,-26.1289 26.23047,-26.1289 1.11718,0 2.21875,0.0703 3.29687,0.20703 3.63672,-5.60547 8.41016,-10.40625 14,-14.07812 -5.30469,-2.28125 -11.15234,-3.54688 -17.29687,-3.54688 -24.14453,0 -43.71485,19.5 -43.71485,43.54687 0,22.58204 17.25391,41.14844 39.34375,43.33204 z m 91.80469,-51.89453 h -8.74219 c 5.48438,7.28125 8.74219,16.32812 8.74219,26.1289 0,24.05079 -19.57031,43.54688 -43.71484,43.54688 h -43.71875 v -17.41797 h 8.74218 c -5.48828,-7.27734 -8.74218,-16.32422 -8.74218,-26.12891 0,-24.04687 19.57421,-43.54687 43.71875,-43.54687 h 43.71484 z m -17.48438,26.1289 c 0,-14.42968 -11.74609,-26.1289 -26.23046,-26.1289 -14.48829,0 -26.23047,11.69922 -26.23047,26.1289 0,14.4336 11.74218,26.12891 26.23047,26.12891 14.48046,0 26.23046,-11.69531 26.23046,-26.12891 z m 0,0"
       fill="#01305b" />
  </g>
  <g
     transform="translate(-87.05167,-119.22656)"
     id="g23"
     fill-opacity="1"
     fill="#01305b">
    <g
       id="g21"
       transform="translate(85.848545,237.67748)">
      <g
         id="g19">
        <path
           id="path17"
           d="m 11.210938,0.261719 c 3.867187,0 7.214843,-2.179688 8.871093,-5.363281 L 16.375,-7.019531 c -0.941406,1.851562 -2.859375,3.085937 -5.164062,3.085937 -3.28125,0 -5.785157,-2.53125 -5.785157,-5.816406 0,-3.28125 2.503907,-5.816406 5.785157,-5.816406 2.304687,0 4.222656,1.238281 5.164062,3.089844 l 3.707031,-1.917969 c -1.65625,-3.183594 -5.003906,-5.363281 -8.871093,-5.363281 -5.523438,0 -10.007813,4.484374 -10.007813,10.007812 0,5.527344 4.484375,10.011719 10.007813,10.011719 z m 0,0" />
      </g>
    </g>
  </g>
  <g
     transform="translate(-87.05167,-119.22656)"
     id="g31"
     fill-opacity="1"
     fill="#01305b">
    <g
       id="g29"
       transform="translate(106.2523,237.67748)">
      <g
         id="g27">
        <path
           id="path25"
           d="m 14.136719,-19.496094 v 7.832032 H 6.207031 v -7.832032 H 1.917969 V 0 h 4.289062 v -7.863281 h 7.929688 V 0 h 4.253906 v -19.496094 z m 0,0" />
      </g>
    </g>
  </g>
  <g
     transform="translate(-87.05167,-119.22656)"
     id="g39"
     fill-opacity="1"
     fill="#01305b">
    <g
       id="g37"
       transform="translate(126.07123,237.67748)">
      <g
         id="g35">
        <path
           id="path33"
           d="m 13.84375,0 h 4.582031 L 11.40625,-19.496094 H 6.597656 L -0.421875,0 h 4.582031 l 1.203125,-3.671875 h 7.277344 z M 6.5,-7.246094 9,-14.980469 l 2.503906,7.734375 z m 0,0" />
      </g>
    </g>
  </g>
  <g
     transform="translate(-87.05167,-119.22656)"
     id="g47"
     fill-opacity="1"
     fill="#01305b">
    <g
       id="g45"
       transform="translate(143.55086,237.67748)">
      <g
         id="g43">
        <path
           id="path41"
           d="M 2.078125,0 H 6.367188 V -19.496094 H 2.078125 Z m 0,0" />
      </g>
    </g>
  </g>
  <g
     transform="translate(-87.05167,-119.22656)"
     id="g55"
     fill-opacity="1"
     fill="#01305b">
    <g
       id="g53"
       transform="translate(151.44585,237.67748)">
      <g
         id="g51">
        <path
           id="path49"
           d="M 15.921875,-19.496094 V -6.597656 L 6.335938,-19.496094 H 1.917969 V 0 H 6.207031 V -12.933594 L 15.757812,0 h 4.421876 v -19.496094 z m 0,0" />
      </g>
    </g>
  </g>
  <g
     transform="translate(-87.05167,-119.22656)"
     id="g61"
     fill-opacity="1"
     fill="#01305b">
    <g
       id="g59"
       transform="translate(173.05175,237.67748)">
      <g
         id="g57" />
    </g>
  </g>
  <g
     transform="translate(-87.05167,-119.22656)"
     id="g69"
     fill-opacity="1"
     fill="#01305b">
    <g
       id="g67"
       transform="translate(180.32942,237.67748)">
      <g
         id="g65">
        <path
           id="path63"
           d="m 11.210938,-10.691406 v 3.347656 h 5.359374 c -0.910156,2.046875 -2.921874,3.410156 -5.328124,3.410156 -3.28125,0 -5.816407,-2.53125 -5.816407,-5.816406 0,-3.28125 2.535157,-5.816406 5.816407,-5.816406 2.308593,0 4.191406,1.238281 5.167968,3.089844 l 3.703125,-1.917969 c -1.6875,-3.183594 -5.035156,-5.363281 -8.871093,-5.363281 -5.554688,0 -10.007813,4.484374 -10.007813,10.007812 0,5.527344 4.453125,10.011719 10.007813,10.011719 C 16.765625,0.261719 21.25,-4.222656 21.25,-9.75 v -0.941406 z m 0,0" />
      </g>
    </g>
  </g>
  <g
     transform="translate(-87.05167,-119.22656)"
     id="g77"
     fill-opacity="1"
     fill="#01305b">
    <g
       id="g75"
       transform="translate(202.29271,237.67748)">
      <g
         id="g73">
        <path
           id="path71"
           d="M 6.207031,-3.800781 V -19.496094 H 1.917969 V 0 h 10.753906 v -3.800781 z m 0,0" />
      </g>
    </g>
  </g>
  <g
     transform="translate(-87.05167,-119.22656)"
     id="g85"
     fill-opacity="1"
     fill="#01305b">
    <g
       id="g83"
       transform="translate(214.50891,237.67748)">
      <g
         id="g81">
        <path
           id="path79"
           d="m 13.84375,0 h 4.582031 L 11.40625,-19.496094 H 6.597656 L -0.421875,0 h 4.582031 l 1.203125,-3.671875 h 7.277344 z M 6.5,-7.246094 9,-14.980469 l 2.503906,7.734375 z m 0,0" />
      </g>
    </g>
  </g>
  <g
     transform="translate(-87.05167,-119.22656)"
     id="g93"
     fill-opacity="1"
     fill="#01305b">
    <g
       id="g91"
       transform="translate(231.98855,237.67748)">
      <g
         id="g89">
        <path
           id="path87"
           d="M 15.921875,-19.496094 V -6.597656 L 6.335938,-19.496094 H 1.917969 V 0 H 6.207031 V -12.933594 L 15.757812,0 h 4.421876 v -19.496094 z m 0,0" />
      </g>
    </g>
  </g>
  <g
     transform="translate(-87.05167,-119.22656)"
     id="g101"
     fill-opacity="1"
     fill="#01305b">
    <g
       id="g99"
       transform="translate(253.59445,237.67748)">
      <g
         id="g97">
        <path
           id="path95"
           d="m 11.210938,0.261719 c 3.867187,0 7.214843,-2.179688 8.871093,-5.363281 L 16.375,-7.019531 c -0.941406,1.851562 -2.859375,3.085937 -5.164062,3.085937 -3.28125,0 -5.785157,-2.53125 -5.785157,-5.816406 0,-3.28125 2.503907,-5.816406 5.785157,-5.816406 2.304687,0 4.222656,1.238281 5.164062,3.089844 l 3.707031,-1.917969 c -1.65625,-3.183594 -5.003906,-5.363281 -8.871093,-5.363281 -5.523438,0 -10.007813,4.484374 -10.007813,10.007812 0,5.527344 4.484375,10.011719 10.007813,10.011719 z m 0,0" />
      </g>
    </g>
  </g>
  <g
     transform="translate(-87.05167,-119.22656)"
     id="g109"
     fill-opacity="1"
     fill="#01305b">
    <g
       id="g107"
       transform="translate(273.99821,237.67748)">
      <g
         id="g105">
        <path
           id="path103"
           d="m 13.808594,-15.726562 v -3.769532 H 2.078125 V 0 H 13.808594 V -3.769531 H 6.367188 v -4.09375 h 6.371093 v -3.769531 H 6.367188 v -4.09375 z m 0,0" />
      </g>
    </g>
  </g>
</svg>
